<svg version="1.2" xmlns="http://www.w3.org/2000/svg" viewBox="0 0 1221 126" width="1221" height="126">
	<title>Логотип SecuroomAI (желтый)</title>
	<style>
		.s0 { fill: #ffffff } 
		.s1 { fill: #f3eb22 } 
	</style>
	<g>
		<g id="_Слой_1">
			<g>
				<path class="s0" d="m9.9 106.8l8.6-19.2c9.3 6.8 23.1 11.5 36.3 11.5 13.2 0 21.2-5 21.2-11.8 0-20.6-63.9-6.4-63.9-47.3 0-40.9 15.1-34.2 46.3-34.2 31.2 0 28 3.3 38.2 9.7l-7.9 19.3c-10.2-5.8-20.7-8.6-30.5-8.6-15.1 0-20.9 5.7-20.9 12.6 0 20.3 63.9 6.3 63.9 46.7 0 40.4-15.2 34.1-46.7 34.1-31.5 0-35-5.2-44.8-12.7z"/>
				<path class="s0" d="m211.8 97.2v20.4h-85.1v-110h83.1v20.4h-57.8v23.9h51.1v19.8h-51.1v25.4h59.9z"/>
				<path class="s0" d="m232.6 62.6c0-33.1 25.4-56.9 59.7-56.9 34.3 0 34.9 6.9 45.2 19.5l-16.3 15.1c-7.4-8.5-16.7-12.9-27.6-12.9-20.6 0-35.2 14.5-35.2 35.2 0 20.7 14.6 35.2 35.2 35.2 20.6 0 20.3-4.4 27.6-13l16.3 15.1c-10.4 12.7-26.2 19.6-45.4 19.6-34.1 0-59.5-23.7-59.5-56.9z"/>
				<path class="s0" d="m360.7 69.2v-61.6h25.4v60.6c0 20.9 9.1 29.5 24.5 29.5 15.4 0 24.5-8.6 24.5-29.5v-60.6h25.1v61.6c0 32.4-18.5 50.3-49.8 50.3-31.3 0-49.8-17.9-49.8-50.3z"/>
				<path class="s0" d="m563.3 117.6l-21.2-30.6h-23.4v30.6h-25.4v-110h47.6c29.4 0 47.8 15.2 47.8 39.9 0 24.7-8.3 28.6-22.6 34.7l24.7 35.3h-27.3zm-23.9-89.2h-20.7v38.3h20.7c15.6 0 23.4-7.2 23.4-19.2 0-12-7.9-19.2-23.4-19.2z"/>
				<path class="s0" d="m609.7 62.6c0-32.7 25.4-56.9 60.2-56.9 34.8 0 60.2 24 60.2 56.9 0 32.9-25.6 56.9-60.2 56.9-34.6 0-60.2-24.2-60.2-56.9zm94.5 0c0-20.9-14.8-35.2-34.4-35.2-19.6 0-34.4 14.3-34.4 35.2 0 20.9 14.8 35.2 34.4 35.2 19.6 0 34.4-14.3 34.4-35.2z"/>
				<path class="s0" d="m750.1 62.6c0-32.7 25.4-56.9 60.2-56.9 34.8 0 60.2 24 60.2 56.9 0 32.9-25.6 56.9-60.2 56.9-34.6 0-60.2-24.2-60.2-56.9zm94.6 0c0-20.9-14.8-35.2-34.4-35.2-19.6 0-34.4 14.3-34.4 35.2 0 20.9 14.8 35.2 34.4 35.2 19.6 0 34.4-14.3 34.4-35.2z"/>
				<path class="s0" d="m997.5 117.6l-0.2-66-32.4 54.4h-11.5l-32.2-52.9v64.6h-23.9v-110h21l41.2 68.3 40.5-68.3h20.9l0.3 110h-23.9z"/>
				<path class="s1" d="m1127.7 94h-51.1l-9.7 23.6h-26.1l49-110h25.1l49.2 110h-26.7zm-8-19.3l-17.4-42.1-17.4 42.1h34.9z"/>
				<path class="s1" d="m1183.5 7.6h25.4v110h-25.4z"/>
			</g>
		</g>
	</g>
</svg>